<svg xmlns="http://www.w3.org/2000/svg" xmlns:xlink="http://www.w3.org/1999/xlink" width="500" zoomAndPan="magnify" viewBox="0 0 375 374.999991" height="500" preserveAspectRatio="xMidYMid meet" version="1.0"><defs><g/><clipPath id="57aed87b51"><path d="M 223 67 L 293 67 L 293 123 L 223 123 Z M 223 67 " clip-rule="nonzero"/></clipPath><clipPath id="8207f1f39c"><path d="M 225.335938 63.792969 L 293.972656 70.863281 L 288.59375 123.085938 L 219.957031 116.015625 Z M 225.335938 63.792969 " clip-rule="nonzero"/></clipPath><clipPath id="867832311a"><path d="M 225.335938 63.792969 L 293.972656 70.863281 L 288.59375 123.085938 L 219.957031 116.015625 Z M 225.335938 63.792969 " clip-rule="nonzero"/></clipPath></defs><rect x="-37.5" width="450" fill="#ffffff" y="-37.499999" height="449.999989" fill-opacity="1"/><rect x="-37.5" width="450" fill="#71546b" y="-37.499999" height="449.999989" fill-opacity="1"/><g fill="#7f5405" fill-opacity="0.4"><g transform="translate(131.50849, 234.880825)"><g><path d="M 128.015625 -39.453125 C 128.785156 -40.609375 129.789062 -41.015625 131.03125 -40.671875 C 132.28125 -40.335938 133.3125 -39.691406 134.125 -38.734375 C 134.945312 -37.773438 135.070312 -36.816406 134.5 -35.859375 C 133.539062 -34.222656 132.363281 -31.960938 130.96875 -29.078125 C 129.570312 -26.203125 127.863281 -23.109375 125.84375 -19.796875 C 123.832031 -16.484375 121.484375 -13.316406 118.796875 -10.296875 C 116.109375 -7.273438 113.035156 -4.800781 109.578125 -2.875 C 106.128906 -0.957031 102.289062 0 98.0625 0 C 92.976562 0 88.898438 -1.484375 85.828125 -4.453125 C 82.753906 -7.429688 81.21875 -11.707031 81.21875 -17.28125 C 81.21875 -20.445312 81.429688 -23.828125 81.859375 -27.421875 C 82.296875 -31.023438 83.234375 -34.988281 84.671875 -39.3125 L 84.8125 -39.890625 C 85.675781 -42.671875 85.796875 -44.539062 85.171875 -45.5 C 84.546875 -46.457031 83.34375 -46.9375 81.5625 -46.9375 C 79.789062 -46.9375 77.660156 -46.9375 75.171875 -46.9375 C 74.109375 -46.9375 73.070312 -46.789062 72.0625 -46.5 C 71.0625 -46.21875 70.03125 -45.117188 68.96875 -43.203125 C 68.78125 -42.816406 68.585938 -42.40625 68.390625 -41.96875 C 68.203125 -41.539062 68.015625 -41.132812 67.828125 -40.75 C 66.960938 -38.738281 66.171875 -36.914062 65.453125 -35.28125 C 64.734375 -33.644531 64.128906 -32.300781 63.640625 -31.25 C 58.367188 -19.914062 51.960938 -10.863281 44.421875 -4.09375 C 36.890625 2.664062 27.988281 6.046875 17.71875 6.046875 C 12.144531 6.046875 7.507812 4.867188 3.8125 2.515625 C 0.113281 0.160156 -2.644531 -2.882812 -4.46875 -6.625 C -6.289062 -10.363281 -7.203125 -14.203125 -7.203125 -18.140625 C -7.203125 -22.078125 -6.410156 -25.84375 -4.828125 -29.4375 C -3.242188 -33.039062 -1.015625 -35.96875 1.859375 -38.21875 C 4.742188 -40.476562 8.109375 -41.609375 11.953125 -41.609375 C 13.390625 -41.609375 14.109375 -41.035156 14.109375 -39.890625 C 14.109375 -36.722656 15.472656 -34.15625 18.203125 -32.1875 C 20.941406 -30.21875 24.28125 -29.234375 28.21875 -29.234375 C 31.582031 -29.234375 35.039062 -30.070312 38.59375 -31.75 C 42.144531 -33.425781 45.503906 -36.085938 48.671875 -39.734375 C 51.835938 -43.390625 54.523438 -48.097656 56.734375 -53.859375 C 58.460938 -58.367188 60.378906 -63.144531 62.484375 -68.1875 C 64.597656 -73.226562 66.757812 -78.53125 68.96875 -84.09375 C 64.457031 -85.34375 60.257812 -85.316406 56.375 -84.015625 C 52.488281 -82.722656 49.367188 -80.515625 47.015625 -77.390625 C 44.660156 -74.273438 43.484375 -70.65625 43.484375 -66.53125 C 43.484375 -64.507812 44.007812 -62.800781 45.0625 -61.40625 C 46.125 -60.019531 47.421875 -59.328125 48.953125 -59.328125 C 49.628906 -57.796875 49.675781 -55.945312 49.09375 -53.78125 C 48.519531 -51.625 47.394531 -49.5625 45.71875 -47.59375 C 44.039062 -45.625 41.878906 -43.96875 39.234375 -42.625 C 36.597656 -41.28125 33.550781 -40.609375 30.09375 -40.609375 C 26.15625 -40.609375 22.84375 -41.59375 20.15625 -43.5625 C 17.46875 -45.53125 15.453125 -48.144531 14.109375 -51.40625 C 12.765625 -54.664062 12.09375 -58.125 12.09375 -61.78125 C 12.09375 -67.914062 13.390625 -73.71875 15.984375 -79.1875 C 18.578125 -84.664062 22.269531 -89.492188 27.0625 -93.671875 C 31.863281 -97.847656 37.503906 -101.132812 43.984375 -103.53125 C 50.472656 -105.9375 57.601562 -107.140625 65.375 -107.140625 C 75.070312 -107.140625 81.382812 -105 84.3125 -100.71875 C 87.238281 -96.445312 87.3125 -90.710938 84.53125 -83.515625 C 82.507812 -77.179688 80.15625 -70.65625 77.46875 -63.9375 C 77.46875 -63.84375 77.421875 -63.742188 77.328125 -63.640625 C 76.273438 -60.859375 76.179688 -59.082031 77.046875 -58.3125 C 77.910156 -57.550781 78.960938 -57.171875 80.203125 -57.171875 C 80.972656 -57.171875 82.03125 -57.191406 83.375 -57.234375 C 84.71875 -57.285156 86.0625 -57.359375 87.40625 -57.453125 C 89.320312 -57.648438 90.59375 -58.347656 91.21875 -59.546875 C 91.84375 -60.742188 92.632812 -62.59375 93.59375 -65.09375 C 96.863281 -74.40625 100.007812 -82.300781 103.03125 -88.78125 C 106.050781 -95.257812 109.335938 -100.175781 112.890625 -103.53125 C 116.441406 -106.894531 120.523438 -108.578125 125.140625 -108.578125 C 128.785156 -108.578125 131.734375 -107.445312 133.984375 -105.1875 C 136.242188 -102.9375 137.375 -99.265625 137.375 -94.171875 C 137.375 -88.992188 136.101562 -83.59375 133.5625 -77.96875 C 131.019531 -72.351562 127.488281 -67.191406 122.96875 -62.484375 C 118.457031 -57.785156 113.226562 -54.238281 107.28125 -51.84375 C 104.5 -50.6875 103.109375 -48.191406 103.109375 -44.359375 C 103.109375 -40.992188 104.09375 -38.109375 106.0625 -35.703125 C 108.03125 -33.304688 110.738281 -32.109375 114.1875 -32.109375 C 116.78125 -32.109375 119.347656 -32.734375 121.890625 -33.984375 C 124.441406 -35.234375 126.484375 -37.054688 128.015625 -39.453125 Z M 109.015625 -71.5625 C 107.859375 -67.914062 107.328125 -65.613281 107.421875 -64.65625 C 107.515625 -63.695312 107.898438 -63.21875 108.578125 -63.21875 C 110.015625 -63.21875 111.617188 -64.082031 113.390625 -65.8125 C 115.171875 -67.539062 116.6875 -69.578125 117.9375 -71.921875 C 119.1875 -74.273438 119.8125 -76.316406 119.8125 -78.046875 C 119.8125 -80.441406 118.800781 -81.640625 116.78125 -81.640625 C 114.769531 -81.640625 113.1875 -80.609375 112.03125 -78.546875 C 110.875 -76.484375 109.867188 -74.15625 109.015625 -71.5625 Z M 109.015625 -71.5625 "/></g></g></g><g fill="#ffa500" fill-opacity="1"><g transform="translate(125.144528, 228.516871)"><g><path d="M 128.015625 -39.453125 C 128.785156 -40.609375 129.789062 -41.015625 131.03125 -40.671875 C 132.28125 -40.335938 133.3125 -39.691406 134.125 -38.734375 C 134.945312 -37.773438 135.070312 -36.816406 134.5 -35.859375 C 133.539062 -34.222656 132.363281 -31.960938 130.96875 -29.078125 C 129.570312 -26.203125 127.863281 -23.109375 125.84375 -19.796875 C 123.832031 -16.484375 121.484375 -13.316406 118.796875 -10.296875 C 116.109375 -7.273438 113.035156 -4.800781 109.578125 -2.875 C 106.128906 -0.957031 102.289062 0 98.0625 0 C 92.976562 0 88.898438 -1.484375 85.828125 -4.453125 C 82.753906 -7.429688 81.21875 -11.707031 81.21875 -17.28125 C 81.21875 -20.445312 81.429688 -23.828125 81.859375 -27.421875 C 82.296875 -31.023438 83.234375 -34.988281 84.671875 -39.3125 L 84.8125 -39.890625 C 85.675781 -42.671875 85.796875 -44.539062 85.171875 -45.5 C 84.546875 -46.457031 83.34375 -46.9375 81.5625 -46.9375 C 79.789062 -46.9375 77.660156 -46.9375 75.171875 -46.9375 C 74.109375 -46.9375 73.070312 -46.789062 72.0625 -46.5 C 71.0625 -46.21875 70.03125 -45.117188 68.96875 -43.203125 C 68.78125 -42.816406 68.585938 -42.40625 68.390625 -41.96875 C 68.203125 -41.539062 68.015625 -41.132812 67.828125 -40.75 C 66.960938 -38.738281 66.171875 -36.914062 65.453125 -35.28125 C 64.734375 -33.644531 64.128906 -32.300781 63.640625 -31.25 C 58.367188 -19.914062 51.960938 -10.863281 44.421875 -4.09375 C 36.890625 2.664062 27.988281 6.046875 17.71875 6.046875 C 12.144531 6.046875 7.507812 4.867188 3.8125 2.515625 C 0.113281 0.160156 -2.644531 -2.882812 -4.46875 -6.625 C -6.289062 -10.363281 -7.203125 -14.203125 -7.203125 -18.140625 C -7.203125 -22.078125 -6.410156 -25.84375 -4.828125 -29.4375 C -3.242188 -33.039062 -1.015625 -35.96875 1.859375 -38.21875 C 4.742188 -40.476562 8.109375 -41.609375 11.953125 -41.609375 C 13.390625 -41.609375 14.109375 -41.035156 14.109375 -39.890625 C 14.109375 -36.722656 15.472656 -34.15625 18.203125 -32.1875 C 20.941406 -30.21875 24.28125 -29.234375 28.21875 -29.234375 C 31.582031 -29.234375 35.039062 -30.070312 38.59375 -31.75 C 42.144531 -33.425781 45.503906 -36.085938 48.671875 -39.734375 C 51.835938 -43.390625 54.523438 -48.097656 56.734375 -53.859375 C 58.460938 -58.367188 60.378906 -63.144531 62.484375 -68.1875 C 64.597656 -73.226562 66.757812 -78.53125 68.96875 -84.09375 C 64.457031 -85.34375 60.257812 -85.316406 56.375 -84.015625 C 52.488281 -82.722656 49.367188 -80.515625 47.015625 -77.390625 C 44.660156 -74.273438 43.484375 -70.65625 43.484375 -66.53125 C 43.484375 -64.507812 44.007812 -62.800781 45.0625 -61.40625 C 46.125 -60.019531 47.421875 -59.328125 48.953125 -59.328125 C 49.628906 -57.796875 49.675781 -55.945312 49.09375 -53.78125 C 48.519531 -51.625 47.394531 -49.5625 45.71875 -47.59375 C 44.039062 -45.625 41.878906 -43.96875 39.234375 -42.625 C 36.597656 -41.28125 33.550781 -40.609375 30.09375 -40.609375 C 26.15625 -40.609375 22.84375 -41.59375 20.15625 -43.5625 C 17.46875 -45.53125 15.453125 -48.144531 14.109375 -51.40625 C 12.765625 -54.664062 12.09375 -58.125 12.09375 -61.78125 C 12.09375 -67.914062 13.390625 -73.71875 15.984375 -79.1875 C 18.578125 -84.664062 22.269531 -89.492188 27.0625 -93.671875 C 31.863281 -97.847656 37.503906 -101.132812 43.984375 -103.53125 C 50.472656 -105.9375 57.601562 -107.140625 65.375 -107.140625 C 75.070312 -107.140625 81.382812 -105 84.3125 -100.71875 C 87.238281 -96.445312 87.3125 -90.710938 84.53125 -83.515625 C 82.507812 -77.179688 80.15625 -70.65625 77.46875 -63.9375 C 77.46875 -63.84375 77.421875 -63.742188 77.328125 -63.640625 C 76.273438 -60.859375 76.179688 -59.082031 77.046875 -58.3125 C 77.910156 -57.550781 78.960938 -57.171875 80.203125 -57.171875 C 80.972656 -57.171875 82.03125 -57.191406 83.375 -57.234375 C 84.71875 -57.285156 86.0625 -57.359375 87.40625 -57.453125 C 89.320312 -57.648438 90.59375 -58.347656 91.21875 -59.546875 C 91.84375 -60.742188 92.632812 -62.59375 93.59375 -65.09375 C 96.863281 -74.40625 100.007812 -82.300781 103.03125 -88.78125 C 106.050781 -95.257812 109.335938 -100.175781 112.890625 -103.53125 C 116.441406 -106.894531 120.523438 -108.578125 125.140625 -108.578125 C 128.785156 -108.578125 131.734375 -107.445312 133.984375 -105.1875 C 136.242188 -102.9375 137.375 -99.265625 137.375 -94.171875 C 137.375 -88.992188 136.101562 -83.59375 133.5625 -77.96875 C 131.019531 -72.351562 127.488281 -67.191406 122.96875 -62.484375 C 118.457031 -57.785156 113.226562 -54.238281 107.28125 -51.84375 C 104.5 -50.6875 103.109375 -48.191406 103.109375 -44.359375 C 103.109375 -40.992188 104.09375 -38.109375 106.0625 -35.703125 C 108.03125 -33.304688 110.738281 -32.109375 114.1875 -32.109375 C 116.78125 -32.109375 119.347656 -32.734375 121.890625 -33.984375 C 124.441406 -35.234375 126.484375 -37.054688 128.015625 -39.453125 Z M 109.015625 -71.5625 C 107.859375 -67.914062 107.328125 -65.613281 107.421875 -64.65625 C 107.515625 -63.695312 107.898438 -63.21875 108.578125 -63.21875 C 110.015625 -63.21875 111.617188 -64.082031 113.390625 -65.8125 C 115.171875 -67.539062 116.6875 -69.578125 117.9375 -71.921875 C 119.1875 -74.273438 119.8125 -76.316406 119.8125 -78.046875 C 119.8125 -80.441406 118.800781 -81.640625 116.78125 -81.640625 C 114.769531 -81.640625 113.1875 -80.609375 112.03125 -78.546875 C 110.875 -76.484375 109.867188 -74.15625 109.015625 -71.5625 Z M 109.015625 -71.5625 "/></g></g></g><g clip-path="url(#57aed87b51)"><g clip-path="url(#8207f1f39c)"><g clip-path="url(#867832311a)"><path fill="#ffa500" d="M 231.253906 116.21875 C 232.457031 116.105469 234.851562 115.847656 237.273438 115.699219 C 239.691406 115.554688 242.136719 115.511719 244.601562 115.578125 C 247.066406 115.648438 249.558594 115.816406 251.421875 116.019531 C 253.285156 116.222656 254.515625 116.382812 255.710938 116.5625 C 256.902344 116.742188 258.058594 116.9375 259.175781 117.148438 C 260.289062 117.359375 261.371094 117.582031 262.683594 117.867188 C 263.996094 118.15625 265.574219 118.523438 267.195312 118.925781 C 268.820312 119.328125 270.488281 119.765625 272.203125 120.246094 C 273.917969 120.730469 275.679688 121.253906 277.042969 121.636719 C 278.410156 122.019531 279.027344 122.140625 279.59375 122.222656 C 280.160156 122.308594 280.734375 122.351562 281.550781 122.269531 C 282.367188 122.183594 284.023438 121.300781 284.738281 118.402344 C 285.453125 115.5 285.703125 112.585938 286.339844 109.101562 C 286.976562 105.617188 287.9375 101.5625 289.257812 96.957031 C 290.582031 92.347656 292.285156 87.199219 292.660156 82.460938 C 293.03125 77.722656 290.597656 77.207031 289.785156 77.570312 C 288.972656 77.933594 288.59375 78.25 288.261719 78.578125 C 287.929688 78.910156 287.585938 79.289062 287.058594 79.894531 C 286.53125 80.503906 285.589844 81.609375 284.320312 83.113281 C 283.050781 84.621094 281.441406 86.53125 279.5 88.855469 C 277.5625 91.179688 275.269531 93.898438 273.933594 95.496094 C 272.597656 97.089844 272.472656 97.222656 272.433594 97.265625 C 272.394531 97.308594 272.480469 97.269531 272.761719 97.214844 C 273.039062 97.160156 273.515625 97.058594 273.667969 97.101562 C 273.820312 97.144531 273.777344 97.09375 273.546875 96.832031 C 273.316406 96.566406 272.976562 96.089844 272.570312 95.425781 C 272.160156 94.757812 271.699219 93.90625 271.296875 93.105469 C 270.898438 92.300781 270.429688 91.222656 269.703125 89.453125 C 268.976562 87.683594 268.03125 85.234375 266.851562 82.121094 C 265.675781 79.007812 264.265625 75.238281 263.386719 72.882812 C 262.503906 70.53125 262.304688 70.105469 262.050781 69.675781 C 261.796875 69.25 261.457031 68.808594 260.941406 68.351562 C 260.421875 67.894531 259.628906 67.488281 258.902344 67.332031 C 258.175781 67.175781 256.667969 67.421875 255.816406 67.988281 C 254.964844 68.558594 254.515625 69.09375 254.203125 69.589844 C 253.886719 70.085938 253.632812 70.585938 251.363281 76.140625 C 249.097656 81.695312 245.113281 92.28125 244.96875 92.632812 C 244.828125 92.984375 244.695312 93.273438 244.605469 93.460938 C 244.515625 93.648438 244.484375 93.707031 244.589844 93.589844 C 244.691406 93.46875 248.054688 92.429688 247.972656 92.320312 C 247.890625 92.210938 246.648438 91.316406 244.730469 89.746094 C 242.816406 88.175781 240.289062 85.976562 237.171875 83.167969 C 234.054688 80.359375 230.328125 76.9375 229.886719 76.605469 C 229.449219 76.269531 228.953125 76.007812 228.25 75.828125 C 227.542969 75.644531 226.613281 75.707031 225.75 76.144531 C 224.890625 76.578125 223.769531 78.976562 224.003906 81.195312 C 224.242188 83.417969 224.792969 86.082031 225.640625 89.234375 C 226.492188 92.382812 227.644531 96.042969 228.796875 98.988281 C 229.949219 101.933594 233.570312 100.886719 232.992188 98.878906 C 232.992188 98.878906 232.394531 94.71875 231.683594 91.28125 C 230.96875 87.839844 230.5 85.003906 230.285156 82.804688 C 230.074219 80.605469 230.097656 79.078125 229.328125 80.382812 C 228.554688 81.691406 227.820312 81.949219 227.203125 81.929688 C 226.585938 81.910156 226.238281 81.789062 226.09375 81.710938 C 225.953125 81.636719 225.820312 81.527344 229.128906 85.011719 C 232.433594 88.496094 235.257812 91.34375 237.589844 93.570312 C 239.921875 95.792969 241.789062 97.414062 243.351562 98.515625 C 244.910156 99.613281 246.769531 100.25 248.789062 99.375 C 250.8125 98.5 251.136719 98.046875 251.394531 97.609375 C 251.652344 97.171875 251.882812 96.71875 252.109375 96.222656 C 252.335938 95.730469 252.589844 95.121094 256.472656 84.488281 C 260.355469 73.859375 260.421875 73.679688 260.476562 73.539062 C 260.535156 73.402344 260.503906 73.429688 260.242188 73.671875 C 259.980469 73.917969 259.210938 74.320312 258.269531 74.382812 C 257.328125 74.441406 257.027344 74.335938 256.589844 74.066406 C 256.15625 73.800781 255.972656 73.609375 255.933594 73.539062 C 255.890625 73.472656 255.925781 73.515625 255.996094 73.632812 C 256.0625 73.75 257.910156 77.847656 259.484375 81.320312 C 261.058594 84.792969 262.363281 87.628906 263.386719 89.835938 C 264.410156 92.042969 265.167969 93.628906 265.683594 94.613281 C 266.199219 95.597656 266.804688 96.644531 267.386719 97.570312 C 267.972656 98.496094 268.539062 99.292969 269.117188 99.96875 C 269.695312 100.644531 270.324219 101.21875 271.015625 101.632812 C 271.710938 102.046875 272.390625 102.269531 273.160156 102.183594 C 273.933594 102.101562 274.539062 101.894531 275.019531 101.613281 C 275.496094 101.332031 275.890625 101.007812 276.253906 100.652344 C 276.617188 100.292969 279.269531 97.410156 281.558594 94.929688 C 283.84375 92.453125 285.785156 90.378906 287.363281 88.695312 C 288.9375 87.015625 290.164062 85.738281 291.027344 84.859375 C 291.886719 83.984375 292.222656 83.644531 292.449219 83.433594 C 292.679688 83.21875 292.796875 83.125 292.675781 83.207031 C 292.554688 83.289062 291.695312 83.585938 289.964844 81.445312 C 288.238281 79.304688 285.863281 84.734375 283.890625 89.78125 C 281.914062 94.824219 280.390625 99.441406 279.351562 103.640625 C 278.308594 107.84375 277.730469 111.632812 277.601562 114.902344 C 277.472656 118.171875 278.800781 115.292969 279.820312 114.855469 C 280.835938 114.414062 281.003906 114.410156 280.855469 114.398438 C 280.707031 114.386719 280.363281 114.339844 279.960938 114.273438 C 279.5625 114.210938 277.757812 113.746094 275.914062 113.300781 C 274.066406 112.855469 272.265625 112.453125 270.507812 112.089844 C 268.746094 111.730469 267.03125 111.417969 265.363281 111.152344 C 263.699219 110.886719 262.550781 110.722656 261.363281 110.578125 C 260.171875 110.433594 258.953125 110.308594 257.703125 110.199219 C 256.449219 110.09375 255.167969 109.996094 253.828125 109.921875 C 252.492188 109.84375 249.8125 109.804688 247.15625 109.871094 C 244.503906 109.9375 241.886719 110.128906 239.3125 110.433594 C 236.738281 110.738281 234.203125 111.167969 232.941406 111.476562 C 230.46875 112.011719 232.46875 115.992188 231.253906 116.21875 Z M 231.253906 116.21875 " fill-opacity="1" fill-rule="nonzero"/></g></g></g></svg>